<svg xmlns="http://www.w3.org/2000/svg" viewBox="0 9.84000015258789 126.06999969482422 35.470001220703125" data-asc="0.89111328125" width="126.06999969482422" height="35.470001220703125"><defs/><g><g fill="#ffffff"><g transform="translate(0, 0)"><path d="M35.06 11.45L35.06 12.35Q33.30 12.67 32.40 13.48Q31.10 14.67 30.10 17.14L18.55 45.31L17.65 45.31L5.25 16.77Q4.30 14.58 3.91 14.09Q3.30 13.33 2.40 12.90Q1.51 12.48 0 12.35L0 11.45L13.53 11.45L13.53 12.35Q11.23 12.57 10.55 13.13Q9.86 13.70 9.86 14.58Q9.86 15.80 10.99 18.38L19.41 37.79L27.22 18.63Q28.37 15.80 28.37 14.70Q28.37 13.99 27.66 13.34Q26.95 12.70 25.27 12.43Q25.15 12.40 24.85 12.35L24.85 11.45L35.06 11.45ZM39.92 9.84Q40.94 9.84 41.66 10.56Q42.38 11.28 42.38 12.30Q42.38 13.33 41.66 14.06Q40.94 14.79 39.92 14.79Q38.89 14.79 38.16 14.06Q37.43 13.33 37.43 12.30Q37.43 11.28 38.15 10.56Q38.87 9.84 39.92 9.84M41.94 21.53L41.94 39.50Q41.94 41.60 42.25 42.30Q42.55 42.99 43.15 43.33Q43.75 43.68 45.34 43.68L45.34 44.56L34.47 44.56L34.47 43.68Q36.11 43.68 36.67 43.36Q37.23 43.04 37.56 42.31Q37.89 41.58 37.89 39.50L37.89 30.88Q37.89 27.25 37.67 26.17Q37.50 25.39 37.13 25.09Q36.77 24.78 36.13 24.78Q35.45 24.78 34.47 25.15L34.13 24.27L40.87 21.53L41.94 21.53ZM62.57 21.53L62.57 29.15L61.77 29.15Q60.84 25.56 59.39 24.27Q57.93 22.97 55.69 22.97Q53.98 22.97 52.93 23.88Q51.88 24.78 51.88 25.88Q51.88 27.25 52.66 28.22Q53.42 29.22 55.74 30.35L59.30 32.08Q64.26 34.50 64.26 38.45Q64.26 41.50 61.95 43.37Q59.64 45.24 56.79 45.24Q54.74 45.24 52.10 44.51Q51.29 44.26 50.78 44.26Q50.22 44.26 49.90 44.90L49.10 44.90L49.10 36.91L49.90 36.91Q50.59 40.33 52.51 42.07Q54.44 43.80 56.84 43.80Q58.52 43.80 59.58 42.81Q60.64 41.82 60.64 40.43Q60.64 38.75 59.46 37.60Q58.28 36.45 54.74 34.69Q51.20 32.93 50.10 31.52Q49.00 30.13 49.00 28.00Q49.00 25.24 50.89 23.39Q52.78 21.53 55.79 21.53Q57.10 21.53 58.98 22.09Q60.23 22.46 60.64 22.46Q61.04 22.46 61.25 22.29Q61.47 22.12 61.77 21.53L62.57 21.53ZM74.15 9.84L74.15 26.20Q76.86 23.22 78.44 22.38Q80.03 21.53 81.62 21.53Q83.52 21.53 84.89 22.58Q86.25 23.63 86.91 25.88Q87.38 27.44 87.38 31.59L87.38 39.50Q87.38 41.63 87.72 42.41Q87.96 42.99 88.55 43.33Q89.14 43.68 90.70 43.68L90.70 44.56L79.71 44.56L79.71 43.68L80.22 43.68Q81.79 43.68 82.40 43.20Q83.01 42.72 83.25 41.80Q83.33 41.41 83.33 39.50L83.33 31.59Q83.33 27.93 82.95 26.78Q82.57 25.63 81.74 25.06Q80.91 24.49 79.74 24.49Q78.54 24.49 77.25 25.12Q75.95 25.76 74.15 27.69L74.15 39.50Q74.15 41.80 74.40 42.36Q74.66 42.92 75.35 43.30Q76.05 43.68 77.76 43.68L77.76 44.56L66.67 44.56L66.67 43.68Q68.16 43.68 69.02 43.21Q69.51 42.97 69.80 42.29Q70.09 41.60 70.09 39.50L70.09 19.26Q70.09 15.43 69.91 14.55Q69.73 13.67 69.35 13.35Q68.97 13.04 68.33 13.04Q67.82 13.04 66.67 13.43L66.33 12.57L73.02 9.84L74.15 9.84ZM105.25 41.33Q101.81 43.99 100.93 44.41Q99.61 45.02 98.12 45.02Q95.80 45.02 94.30 43.43Q92.80 41.85 92.80 39.26Q92.80 37.62 93.53 36.43Q94.53 34.77 97.01 33.30Q99.49 31.84 105.25 29.74L105.25 28.86Q105.25 25.51 104.19 24.27Q103.13 23.02 101.10 23.02Q99.56 23.02 98.66 23.85Q97.73 24.68 97.73 25.76L97.78 27.17Q97.78 28.30 97.20 28.91Q96.63 29.52 95.70 29.52Q94.80 29.52 94.23 28.88Q93.65 28.25 93.65 27.15Q93.65 25.05 95.80 23.29Q97.95 21.53 101.83 21.53Q104.81 21.53 106.71 22.53Q108.15 23.29 108.84 24.90Q109.28 25.95 109.28 29.20L109.28 36.79Q109.28 39.99 109.40 40.71Q109.52 41.43 109.80 41.67Q110.08 41.92 110.45 41.92Q110.84 41.92 111.13 41.75Q111.65 41.43 113.11 39.97L113.11 41.33Q110.38 45.00 107.89 45.00Q106.69 45.00 105.98 44.17Q105.27 43.33 105.25 41.33M105.25 39.75L105.25 31.23Q101.56 32.69 100.49 33.30Q98.56 34.38 97.73 35.55Q96.90 36.72 96.90 38.11Q96.90 39.87 97.95 41.03Q99.00 42.19 100.37 42.19Q102.22 42.19 105.25 39.75ZM122.46 9.84L122.46 39.50Q122.46 41.60 122.77 42.29Q123.07 42.97 123.71 43.32Q124.34 43.68 126.07 43.68L126.07 44.56L115.11 44.56L115.11 43.68Q116.65 43.68 117.21 43.36Q117.77 43.04 118.09 42.31Q118.41 41.58 118.41 39.50L118.41 19.19Q118.41 15.41 118.24 14.54Q118.07 13.67 117.69 13.35Q117.31 13.04 116.72 13.04Q116.09 13.04 115.11 13.43L114.70 12.57L121.36 9.84L122.46 9.84Z"/></g><g transform="translate(0, 60.8154296875)"><path d=""/></g></g></g></svg>